<?xml version="1.0" encoding="UTF-8" standalone="no"?>
<svg
   width="200"
   height="200"
   version="1.1"
   viewBox="0 0 52.917 52.917"
   id="svg40"
   sodipodi:docname="logo.svg"
   inkscape:version="1.1.1 (eb90963e84, 2021-10-02)"
   xmlns:inkscape="http://www.inkscape.org/namespaces/inkscape"
   xmlns:sodipodi="http://sodipodi.sourceforge.net/DTD/sodipodi-0.dtd"
   xmlns="http://www.w3.org/2000/svg"
   xmlns:svg="http://www.w3.org/2000/svg">
  <defs
     id="defs44" />
  <sodipodi:namedview
     id="namedview42"
     pagecolor="#ffffff"
     bordercolor="#cccccc"
     borderopacity="1"
     inkscape:pageshadow="0"
     inkscape:pageopacity="1"
     inkscape:pagecheckerboard="0"
     showgrid="false"
     inkscape:zoom="1.0765701"
     inkscape:cx="-85.456583"
     inkscape:cy="138.86695"
     inkscape:window-width="1301"
     inkscape:window-height="744"
     inkscape:window-x="65"
     inkscape:window-y="24"
     inkscape:window-maximized="1"
     inkscape:current-layer="svg40" />
  <path
     d="m-123.61-73.974h-1.5c0 0.22875 1.5 0.91501 1.5 1.1438 0-0.22875 1.5-0.91501 1.5-1.1438h-1.5z"
     id="path2" />
  <path
     id="rect4"
     style="fill:#000000;fill-opacity:0;stroke-width:5.40807;stroke-miterlimit:3.5;stroke-opacity:0.96078"
     d="m 12.66199,13.13748 15.824804,-9.537863 15.587633,9.575519 -16.65468,8.86051 -0.254359,29.8186 -14.387142,-8.852001 z"
     sodipodi:nodetypes="ccccccc" />
  <rect
     transform="matrix(-0.86099083,-0.50862048,0,1,0,0)"
     x="-26.113922"
     y="14.35942"
     width="5.5494089"
     height="4.7311363"
     stroke-width="0.520884"
     id="rect6"
     style="fill:#ffffff;fill-opacity:0.91062;stroke-miterlimit:3.5;stroke-opacity:0.96078" />
  <rect
     transform="matrix(0.88556833,-0.46450913,0,-1,0,0)"
     x="30.943764"
     y="-56.253086"
     width="9.546999"
     height="9.9367523"
     id="rect8"
     style="fill:#ffffff;fill-opacity:0.91062;stroke-width:0.990155;stroke-miterlimit:3.5;stroke-opacity:0.96078" />
  <rect
     transform="matrix(0.88556833,-0.46450913,0,-1,0,0)"
     x="30.943764"
     y="-66.190323"
     width="9.546999"
     height="9.9367523"
     id="rect10"
     style="fill:#ffffff;fill-opacity:0.91062;stroke-width:0.990155;stroke-miterlimit:3.5;stroke-opacity:0.96078" />
  <rect
     transform="matrix(0.88556833,-0.46450913,0,-1,0,0)"
     x="30.943764"
     y="-46.317303"
     width="9.546999"
     height="9.9367523"
     id="rect12"
     style="fill:#ffffff;fill-opacity:0.91062;stroke-width:0.990155;stroke-miterlimit:3.5;stroke-opacity:0.96078" />
  <rect
     transform="matrix(0.88556833,-0.46450913,0,-1,0,0)"
     x="40.490765"
     y="-56.253086"
     width="9.546999"
     height="9.9367523"
     id="rect14"
     style="fill:#ffffff;fill-opacity:0.91062;stroke-width:0.990155;stroke-miterlimit:3.5;stroke-opacity:0.96078" />
  <rect
     transform="matrix(0.88556833,-0.46450913,0,-1,0,0)"
     x="40.490765"
     y="-46.317303"
     width="9.546999"
     height="9.9367523"
     id="rect16"
     style="fill:#ffffff;fill-opacity:0.91062;stroke-width:0.990155;stroke-miterlimit:3.5;stroke-opacity:0.96078" />
  <rect
     transform="matrix(0.86099083,-0.50862048,0,1,0,0)"
     x="35.86832"
     y="44.343727"
     width="13.122926"
     height="11.187589"
     fill-opacity="0"
     stroke-miterlimit="3.5"
     stroke-opacity="0.96078"
     stroke-width="1.23173"
     id="rect22" />
  <g
     fill="none"
     stroke="#000000"
     id="g34"
     transform="matrix(0.48239,0,0,0.48239,1.4044543,0.45641198)"
     style="stroke:#ffffff;stroke-width:0.99989315;stroke-miterlimit:4;stroke-dasharray:none">
    <path
       d="M 23.613,26.461 53.93,44.734"
       stroke-width="0.13933px"
       id="path24"
       style="stroke:#ffffff;stroke-width:0.99989315;stroke-miterlimit:4;stroke-dasharray:none" />
    <path
       d="m 56.142,6.5159 32.806,19.772"
       stroke-width="0.15076px"
       id="path26"
       style="stroke:#ffffff;stroke-width:0.99989315;stroke-miterlimit:4;stroke-dasharray:none" />
    <path
       d="M 56.142,6.5159 23.336,26.2879"
       stroke-width="0.15076px"
       id="path28"
       style="stroke:#ffffff;stroke-width:0.99989315;stroke-miterlimit:4;stroke-dasharray:none" />
    <path
       d="M 23.337,26.288 23.278,88.492"
       stroke-width="0.25891px"
       id="path30"
       style="stroke:#ffffff;stroke-width:0.99989315;stroke-miterlimit:4;stroke-dasharray:none" />
    <path
       d="m 23.578,88.198 30.317,18.273"
       stroke-width="0.13933px"
       id="path32"
       style="stroke:#ffffff;stroke-width:0.99989315;stroke-miterlimit:4;stroke-dasharray:none" />
  </g>
  <rect
     transform="matrix(-0.86099083,-0.50862048,0,1,0,0)"
     x="-27.430847"
     y="27.366102"
     width="9.2382412"
     height="7.8759813"
     fill="#1a1a1a"
     fill-opacity="0.91062"
     stroke-miterlimit="3.5"
     stroke-opacity="0.96078"
     stroke-width="0.867144"
     id="rect36"
     style="fill:#ffffff" />
  <rect
     transform="matrix(0.88556833,-0.46450913,0,-1,0,0)"
     x="40.490761"
     y="-66.190323"
     width="9.546999"
     height="9.9367523"
     id="rect686"
     style="fill:#000000;fill-opacity:0;stroke-width:0.990155;stroke-miterlimit:3.5;stroke-opacity:0.96078" />
</svg>
